<svg xmlns="http://www.w3.org/2000/svg" viewBox="0 0 880 456" width="880" height="456" font-family="-apple-system,BlinkMacSystemFont,'Segoe UI',Helvetica,Arial,sans-serif" role="img" aria-label="macs3-rs is 2.3 to 4.9 times faster than MACS3 and uses 17 to 101 percent of its peak memory across twelve workloads">
<rect x="0.5" y="0.5" width="879" height="455" rx="10" fill="#fcfcfb" stroke="#e6e5e0"/>
<text x="24" y="107.5" font-size="12.5" fill="#0b0b0b">callpeak, single-end -B</text>
<text x="24" y="134.5" font-size="12.5" fill="#0b0b0b">callpeak, single-end --SPMR</text>
<text x="24" y="161.5" font-size="12.5" fill="#0b0b0b">callpeak, single-end --broad</text>
<text x="24" y="188.5" font-size="12.5" fill="#0b0b0b">callpeak, no control</text>
<text x="24" y="215.5" font-size="12.5" fill="#0b0b0b">callpeak, paired-end BAM</text>
<text x="24" y="242.5" font-size="12.5" fill="#0b0b0b">pileup</text>
<text x="24" y="269.5" font-size="12.5" fill="#0b0b0b">filterdup</text>
<text x="24" y="296.5" font-size="12.5" fill="#0b0b0b">randsample</text>
<text x="24" y="323.5" font-size="12.5" fill="#0b0b0b">bdgpeakcall</text>
<text x="24" y="350.5" font-size="12.5" fill="#0b0b0b">bdgopt -m p2q</text>
<text x="24" y="377.5" font-size="12.5" fill="#0b0b0b">cmbreps -m max</text>
<text x="24" y="404.5" font-size="12.5" fill="#0b0b0b">bdgcmp -m ppois</text>
<text x="232" y="40" font-size="15" font-weight="600" fill="#0b0b0b">Speedup over MACS3</text>
<text x="232" y="60" font-size="12.5" fill="#52514e">wall clock, higher is better</text>
<line x1="232.0" y1="88" x2="232.0" y2="417" stroke="#e6e5e0"/>
<text x="232.0" y="433" font-size="11.5" text-anchor="middle" fill="#52514e">0×</text>
<line x1="322.0" y1="88" x2="322.0" y2="417" stroke="#e6e5e0"/>
<text x="322.0" y="433" font-size="11.5" text-anchor="middle" fill="#52514e">2×</text>
<line x1="412.0" y1="88" x2="412.0" y2="417" stroke="#e6e5e0"/>
<text x="412.0" y="433" font-size="11.5" text-anchor="middle" fill="#52514e">4×</text>
<line x1="502.0" y1="88" x2="502.0" y2="417" stroke="#e6e5e0"/>
<text x="502.0" y="433" font-size="11.5" text-anchor="middle" fill="#52514e">6×</text>
<line x1="277.0" y1="88" x2="277.0" y2="417" stroke="#8a8983" stroke-width="1.5"/>
<text x="277.0" y="82" font-size="11.5" text-anchor="middle" fill="#52514e">MACS3</text>
<path d="M232,96h150.5a4,4 0 0 1 4,4v6a4,4 0 0 1 -4,4h-150.5z" fill="#2a78d6"/>
<text x="393.5" y="107.5" font-size="12.5" font-weight="600" fill="#fcfcfb" stroke="#fcfcfb" stroke-width="5" stroke-linejoin="round">3.4×</text>
<text x="393.5" y="107.5" font-size="12.5" font-weight="600" fill="#0b0b0b">3.4×</text>
<path d="M232,123h167.4a4,4 0 0 1 4,4v6a4,4 0 0 1 -4,4h-167.4z" fill="#2a78d6"/>
<text x="410.4" y="134.5" font-size="12.5" font-weight="600" fill="#fcfcfb" stroke="#fcfcfb" stroke-width="5" stroke-linejoin="round">3.8×</text>
<text x="410.4" y="134.5" font-size="12.5" font-weight="600" fill="#0b0b0b">3.8×</text>
<path d="M232,150h159.4a4,4 0 0 1 4,4v6a4,4 0 0 1 -4,4h-159.4z" fill="#2a78d6"/>
<text x="402.4" y="161.5" font-size="12.5" font-weight="600" fill="#fcfcfb" stroke="#fcfcfb" stroke-width="5" stroke-linejoin="round">3.6×</text>
<text x="402.4" y="161.5" font-size="12.5" font-weight="600" fill="#0b0b0b">3.6×</text>
<path d="M232,177h166.7a4,4 0 0 1 4,4v6a4,4 0 0 1 -4,4h-166.7z" fill="#2a78d6"/>
<text x="409.7" y="188.5" font-size="12.5" font-weight="600" fill="#fcfcfb" stroke="#fcfcfb" stroke-width="5" stroke-linejoin="round">3.8×</text>
<text x="409.7" y="188.5" font-size="12.5" font-weight="600" fill="#0b0b0b">3.8×</text>
<path d="M232,204h162.8a4,4 0 0 1 4,4v6a4,4 0 0 1 -4,4h-162.8z" fill="#2a78d6"/>
<text x="405.8" y="215.5" font-size="12.5" font-weight="600" fill="#fcfcfb" stroke="#fcfcfb" stroke-width="5" stroke-linejoin="round">3.7×</text>
<text x="405.8" y="215.5" font-size="12.5" font-weight="600" fill="#0b0b0b">3.7×</text>
<path d="M232,231h98.3a4,4 0 0 1 4,4v6a4,4 0 0 1 -4,4h-98.3z" fill="#2a78d6"/>
<text x="341.3" y="242.5" font-size="12.5" font-weight="600" fill="#fcfcfb" stroke="#fcfcfb" stroke-width="5" stroke-linejoin="round">2.3×</text>
<text x="341.3" y="242.5" font-size="12.5" font-weight="600" fill="#0b0b0b">2.3×</text>
<path d="M232,258h151.9a4,4 0 0 1 4,4v6a4,4 0 0 1 -4,4h-151.9z" fill="#2a78d6"/>
<text x="394.9" y="269.5" font-size="12.5" font-weight="600" fill="#fcfcfb" stroke="#fcfcfb" stroke-width="5" stroke-linejoin="round">3.5×</text>
<text x="394.9" y="269.5" font-size="12.5" font-weight="600" fill="#0b0b0b">3.5×</text>
<path d="M232,285h111.4a4,4 0 0 1 4,4v6a4,4 0 0 1 -4,4h-111.4z" fill="#2a78d6"/>
<text x="354.4" y="296.5" font-size="12.5" font-weight="600" fill="#fcfcfb" stroke="#fcfcfb" stroke-width="5" stroke-linejoin="round">2.6×</text>
<text x="354.4" y="296.5" font-size="12.5" font-weight="600" fill="#0b0b0b">2.6×</text>
<path d="M232,312h195.7a4,4 0 0 1 4,4v6a4,4 0 0 1 -4,4h-195.7z" fill="#2a78d6"/>
<text x="438.7" y="323.5" font-size="12.5" font-weight="600" fill="#fcfcfb" stroke="#fcfcfb" stroke-width="5" stroke-linejoin="round">4.4×</text>
<text x="438.7" y="323.5" font-size="12.5" font-weight="600" fill="#0b0b0b">4.4×</text>
<path d="M232,339h217.1a4,4 0 0 1 4,4v6a4,4 0 0 1 -4,4h-217.1z" fill="#2a78d6"/>
<text x="460.1" y="350.5" font-size="12.5" font-weight="600" fill="#fcfcfb" stroke="#fcfcfb" stroke-width="5" stroke-linejoin="round">4.9×</text>
<text x="460.1" y="350.5" font-size="12.5" font-weight="600" fill="#0b0b0b">4.9×</text>
<path d="M232,366h185.9a4,4 0 0 1 4,4v6a4,4 0 0 1 -4,4h-185.9z" fill="#2a78d6"/>
<text x="428.9" y="377.5" font-size="12.5" font-weight="600" fill="#fcfcfb" stroke="#fcfcfb" stroke-width="5" stroke-linejoin="round">4.2×</text>
<text x="428.9" y="377.5" font-size="12.5" font-weight="600" fill="#0b0b0b">4.2×</text>
<path d="M232,393h132.6a4,4 0 0 1 4,4v6a4,4 0 0 1 -4,4h-132.6z" fill="#2a78d6"/>
<text x="375.6" y="404.5" font-size="12.5" font-weight="600" fill="#fcfcfb" stroke="#fcfcfb" stroke-width="5" stroke-linejoin="round">3.0×</text>
<text x="375.6" y="404.5" font-size="12.5" font-weight="600" fill="#0b0b0b">3.0×</text>
<text x="572" y="40" font-size="15" font-weight="600" fill="#0b0b0b">Peak memory vs MACS3</text>
<text x="572" y="60" font-size="12.5" fill="#52514e">share of upstream RSS, lower is better</text>
<line x1="572.0" y1="88" x2="572.0" y2="417" stroke="#e6e5e0"/>
<text x="572.0" y="433" font-size="11.5" text-anchor="middle" fill="#52514e">0%</text>
<line x1="626.0" y1="88" x2="626.0" y2="417" stroke="#e6e5e0"/>
<text x="626.0" y="433" font-size="11.5" text-anchor="middle" fill="#52514e">25%</text>
<line x1="734.0" y1="88" x2="734.0" y2="417" stroke="#e6e5e0"/>
<text x="734.0" y="433" font-size="11.5" text-anchor="middle" fill="#52514e">75%</text>
<line x1="680.0" y1="88" x2="680.0" y2="417" stroke="#8a8983" stroke-width="1.5"/>
<text x="680.0" y="82" font-size="11.5" text-anchor="middle" fill="#52514e">target</text>
<line x1="788.0" y1="88" x2="788.0" y2="417" stroke="#8a8983" stroke-width="1.5"/>
<text x="788.0" y="82" font-size="11.5" text-anchor="middle" fill="#52514e">MACS3</text>
<path d="M572,96h117.2a4,4 0 0 1 4,4v6a4,4 0 0 1 -4,4h-117.2z" fill="#2a78d6"/>
<text x="700.2" y="107.5" font-size="12.5" font-weight="600" fill="#fcfcfb" stroke="#fcfcfb" stroke-width="5" stroke-linejoin="round">56%</text>
<text x="700.2" y="107.5" font-size="12.5" font-weight="600" fill="#0b0b0b">56%</text>
<path d="M572,123h96.8a4,4 0 0 1 4,4v6a4,4 0 0 1 -4,4h-96.8z" fill="#2a78d6"/>
<text x="679.8" y="134.5" font-size="12.5" font-weight="600" fill="#fcfcfb" stroke="#fcfcfb" stroke-width="5" stroke-linejoin="round">47%</text>
<text x="679.8" y="134.5" font-size="12.5" font-weight="600" fill="#0b0b0b">47%</text>
<path d="M572,150h106.9a4,4 0 0 1 4,4v6a4,4 0 0 1 -4,4h-106.9z" fill="#2a78d6"/>
<text x="689.9" y="161.5" font-size="12.5" font-weight="600" fill="#fcfcfb" stroke="#fcfcfb" stroke-width="5" stroke-linejoin="round">51%</text>
<text x="689.9" y="161.5" font-size="12.5" font-weight="600" fill="#0b0b0b">51%</text>
<path d="M572,177h90.3a4,4 0 0 1 4,4v6a4,4 0 0 1 -4,4h-90.3z" fill="#2a78d6"/>
<text x="673.3" y="188.5" font-size="12.5" font-weight="600" fill="#fcfcfb" stroke="#fcfcfb" stroke-width="5" stroke-linejoin="round">44%</text>
<text x="673.3" y="188.5" font-size="12.5" font-weight="600" fill="#0b0b0b">44%</text>
<path d="M572,204h66.2a4,4 0 0 1 4,4v6a4,4 0 0 1 -4,4h-66.2z" fill="#2a78d6"/>
<text x="649.2" y="215.5" font-size="12.5" font-weight="600" fill="#fcfcfb" stroke="#fcfcfb" stroke-width="5" stroke-linejoin="round">32%</text>
<text x="649.2" y="215.5" font-size="12.5" font-weight="600" fill="#0b0b0b">32%</text>
<path d="M572,231h47.6a4,4 0 0 1 4,4v6a4,4 0 0 1 -4,4h-47.6z" fill="#2a78d6"/>
<text x="630.6" y="242.5" font-size="12.5" font-weight="600" fill="#fcfcfb" stroke="#fcfcfb" stroke-width="5" stroke-linejoin="round">24%</text>
<text x="630.6" y="242.5" font-size="12.5" font-weight="600" fill="#0b0b0b">24%</text>
<path d="M572,258h31.5a4,4 0 0 1 4,4v6a4,4 0 0 1 -4,4h-31.5z" fill="#2a78d6"/>
<text x="614.5" y="269.5" font-size="12.5" font-weight="600" fill="#fcfcfb" stroke="#fcfcfb" stroke-width="5" stroke-linejoin="round">16%</text>
<text x="614.5" y="269.5" font-size="12.5" font-weight="600" fill="#0b0b0b">16%</text>
<path d="M572,285h145.9a4,4 0 0 1 4,4v6a4,4 0 0 1 -4,4h-145.9z" fill="#2a78d6"/>
<text x="728.9" y="296.5" font-size="12.5" font-weight="600" fill="#fcfcfb" stroke="#fcfcfb" stroke-width="5" stroke-linejoin="round">69%</text>
<text x="728.9" y="296.5" font-size="12.5" font-weight="600" fill="#0b0b0b">69%</text>
<path d="M572,312h188.9a4,4 0 0 1 4,4v6a4,4 0 0 1 -4,4h-188.9z" fill="#2a78d6"/>
<text x="771.9" y="323.5" font-size="12.5" font-weight="600" fill="#fcfcfb" stroke="#fcfcfb" stroke-width="5" stroke-linejoin="round">89%</text>
<text x="771.9" y="323.5" font-size="12.5" font-weight="600" fill="#0b0b0b">89%</text>
<path d="M572,339h214.8a4,4 0 0 1 4,4v6a4,4 0 0 1 -4,4h-214.8z" fill="#2a78d6"/>
<text x="797.8" y="350.5" font-size="12.5" font-weight="600" fill="#fcfcfb" stroke="#fcfcfb" stroke-width="5" stroke-linejoin="round">101%</text>
<text x="797.8" y="350.5" font-size="12.5" font-weight="600" fill="#0b0b0b">101%</text>
<path d="M572,366h103.2a4,4 0 0 1 4,4v6a4,4 0 0 1 -4,4h-103.2z" fill="#2a78d6"/>
<text x="686.2" y="377.5" font-size="12.5" font-weight="600" fill="#fcfcfb" stroke="#fcfcfb" stroke-width="5" stroke-linejoin="round">50%</text>
<text x="686.2" y="377.5" font-size="12.5" font-weight="600" fill="#0b0b0b">50%</text>
<path d="M572,393h64.8a4,4 0 0 1 4,4v6a4,4 0 0 1 -4,4h-64.8z" fill="#2a78d6"/>
<text x="647.8" y="404.5" font-size="12.5" font-weight="600" fill="#fcfcfb" stroke="#fcfcfb" stroke-width="5" stroke-linejoin="round">32%</text>
<text x="647.8" y="404.5" font-size="12.5" font-weight="600" fill="#0b0b0b">32%</text>
</svg>
